PathFileType	4	(X/Y/Z)	E:\Qualisys_Data\Carbon_Farble_Plate\Data\Amateur_Runner\S1\T3\S1T3V12_c3d.trc
DataRate	CameraRate	NumFrames	NumMarkers	Units	OrigDataRate	OrigDataStartFrame	OrigNumFrames
200.000000	200.000000	5	39	mm	200.000000	281	322
Frame#	Time	LSHO			RSHO			LICST			RICST			LASIS			LHEEL			RASIS			LTROC			RTROC			SACR			LTH1			LSK4			LTH2			LTH3			RHM5			LSK2			LTH4			RTH1			LTOE			RTH2			RTH3			RTH4			LLEP			RLEP			LSK1			LSK3			RSK1			LHM5			RSK2			LFT1			RSK3			RSK4			LLME			RLME			RTOE			RHEEL			RFT1			RFT2			LFT2			
		X1	Y1	Z1	X2	Y2	Z2	X3	Y3	Z3	X4	Y4	Z4	X5	Y5	Z5	X6	Y6	Z6	X7	Y7	Z7	X8	Y8	Z8	X9	Y9	Z9	X10	Y10	Z10	X11	Y11	Z11	X12	Y12	Z12	X13	Y13	Z13	X14	Y14	Z14	X15	Y15	Z15	X16	Y16	Z16	X17	Y17	Z17	X18	Y18	Z18	X19	Y19	Z19	X20	Y20	Z20	X21	Y21	Z21	X22	Y22	Z22	X23	Y23	Z23	X24	Y24	Z24	X25	Y25	Z25	X26	Y26	Z26	X27	Y27	Z27	X28	Y28	Z28	X29	Y29	Z29	X30	Y30	Z30	X31	Y31	Z31	X32	Y32	Z32	X33	Y33	Z33	X34	Y34	Z34	X35	Y35	Z35	X36	Y36	Z36	X37	Y37	Z37	X38	Y38	Z38	X39	Y39	Z39	

282	1.405	2009.023559570312	1511.9287109375	-499.2341003417969	1944.9990234375	1521.43994140625	-176.4152221679688	1955.62841796875	1043.842651367188	-464.3648071289062	1947.970458984375	1080.039428710938	-166.8933868408203	1998.494750976562	1004.726135253906	-436.5251159667969	1486.984497070312	196.4544982910156	-338.3821716308594	1986.665771484375	1033.428588867188	-174.3366394042969	1873.657592773438	932.822021484375	-474.2170715332031	1892.029052734375	941.2844848632812	-134.3746643066406	1834.209716796875	1080.700561523438	-314.4500122070312	1959.945190429688	758.3089599609375	-442.1930236816406	1597.757080078125	327.9745178222656	-374.3154296875	1881.91455078125	771.6959228515625	-472.461669921875	1931.540161132812	660.1387329101562	-419.4813537597656	2117.04296875	129.4282531738281	-140.9033203125	1658.78271484375	400.9174194335938	-416.5308837890625	1851.744140625	679.10986328125	-444.8201293945312	2063.522705078125	872.9585571289062	-162.8758392333984	1687.693969726562	56.42274475097656	-340.0650634765625	2001.226806640625	833.3133544921875	-130.0429840087891	2117.7197265625	786.3154296875	-162.6588439941406	2050.346923828125	746.4751586914062	-140.3465881347656	1835.699951171875	528.5437622070312	-401.9494934082031	2142.47607421875	605.6156005859375	-172.4838256835938	1723.461059570312	347.3346252441406	-403.5497436523438	1653.183227539062	274.1517639160156	-397.6932373046875	2091.822509765625	419.9501953125	-152.1996917724609	1617.343017578125	72.18143463134766	-402.9007568359375	2015.28515625	443.5225830078125	-168.7826232910156	1481.118041992188	168.6351318359375	-307.7308959960938	2066.1015625	323.1830444335938	-164.8203430175781	1991.892578125	347.6547241210938	-190.2233734130859	1556.402099609375	199.5016479492188	-387.3541564941406	1996.903686523438	206.9092712402344	-167.2970733642578	2178.577392578125	133.1900177001953	-206.6310272216797	1927.674682617188	170.584716796875	-216.978759765625	1939.76025390625	142.7199401855469	-246.2053070068359	1927.073120117188	147.1814270019531	-194.3752593994141	1472.994140625	166.4638977050781	-357.8918762207031
283	1.41	2025.25341796875	1516.469360351562	-497.801025390625	1959.76220703125	1524.722534179688	-176.0229034423828	1973.17041015625	1046.932739257812	-463.6507873535156	1965.022094726562	1083.427001953125	-166.4709320068359	2016.14013671875	1007.688232421875	-435.8255920410156	1497.03515625	206.0497283935547	-339.2276000976562	2004.328369140625	1036.9765625	-173.3550567626953	1890.322387695312	936.65673828125	-473.6029357910156	1908.710815429688	945.3753662109376	-133.9841766357422	1851.609619140625	1084.386840820312	-314.5909423828125	1973.7880859375	761.2703857421875	-442.5899353027344	1606.9873046875	333.7775573730469	-374.6669006347656	1896.09521484375	776.0020141601562	-472.8029479980469	1944.2216796875	663.4342041015625	-420.1186828613281	2151.36767578125	129.2005310058594	-141.3239440917969	1667.665283203125	407.1081848144531	-416.6252746582031	1864.777465820312	683.5985107421875	-445.01611328125	2080.11328125	876.2138671875	-162.5356292724609	1690.557006835938	55.57340621948242	-340.6407775878906	2017.3466796875	836.5079956054688	-130.1162261962891	2133.6044921875	789.270263671875	-162.8387145996094	2065.88671875	749.4432983398438	-140.9150390625	1845.940795898438	533.639892578125	-402.6143188476562	2156.945556640625	607.8759765625	-172.6725311279297	1732.227783203125	353.0221557617188	-405.0144653320312	1662.556762695312	279.2047119140625	-398.7866821289062	2113.484130859375	419.3266296386719	-152.6692504882812	1621.205444335938	74.83807373046875	-403.1311645507812	2036.058227539062	440.1260986328125	-168.4753875732422	1490.48876953125	179.1963348388672	-308.1148986816406	2091.591552734375	322.0738525390625	-165.05615234375	2016.686279296875	343.3110961914062	-189.3945922851562	1565.587524414062	205.7534637451172	-388.6844482421875	2028.009155273438	202.0419921875	-167.3213195800781	2212.735107421875	135.6843872070312	-207.0001983642578	1960.512573242188	162.4427795410156	-217.6267547607422	1972.845336914062	135.9435272216797	-244.4859619140625	1960.927368164062	139.7174530029297	-194.1813812255859	1482.18603515625	176.4779510498047	-358.4422607421875
284	1.415	2041.38427734375	1521.143310546875	-496.3461303710938	1974.441528320312	1528.078491210938	-175.2584991455078	1990.838134765625	1050.057495117188	-463.0264587402344	1981.986328125	1086.991821289062	-166.0216369628906	2033.329833984375	1010.799438476562	-434.9748840332031	1508.069580078125	215.828369140625	-340.0619506835938	2021.910888671875	1040.050537109375	-172.2672882080078	1907.180786132812	940.4533081054688	-473.3441772460938	1925.3251953125	948.5443725585938	-134.2830657958984	1868.871704101562	1088.022827148438	-314.588623046875	1987.933471679688	764.4638671875	-444.1405334472656	1616.887573242188	339.2495422363281	-375.0741577148438	1909.984985351562	780.2863159179688	-473.0867614746094	1956.8671875	666.9317016601562	-421.1957397460938	2185.318359375	129.4896392822266	-141.7198028564453	1677.468017578125	412.6255493164062	-416.9884033203125	1877.4619140625	688.0311279296875	-445.6341552734375	2096.53955078125	878.8717651367188	-161.7559356689453	1694.103759765625	55.09694290161133	-341.0590209960938	2033.356201171875	839.4842529296875	-130.5774841308594	2149.190673828125	791.521240234375	-162.9371185302734	2081.222412109375	751.8366088867188	-141.9752349853516	1856.461791992188	538.6271362304688	-403.8874816894531	2171.123779296875	609.4597778320312	-173.0379638671875	1741.896850585938	358.5823669433594	-406.7339782714844	1672.41943359375	284.6595153808594	-399.4765625	2135.278076171875	419.1512756347656	-152.0860137939453	1625.3193359375	77.57022094726562	-402.1406860351562	2056.861572265625	436.5658874511719	-167.8296813964844	1500.222412109375	189.6382751464844	-309.0837097167969	2117.40966796875	320.519287109375	-165.1205749511719	2041.452026367188	338.8746337890625	-189.0582275390625	1575.649658203125	212.5396270751953	-390.2497863769531	2059.2724609375	197.4478302001953	-167.2347717285156	2246.142822265625	138.6422882080078	-207.8190765380859	1992.799560546875	155.4891815185547	-217.7285461425781	2006.566040039062	129.6334686279297	-244.3886413574219	1994.711181640625	133.3823089599609	-193.3119812011719	1491.611572265625	187.6065521240234	-359.4160461425781
285	1.42	2057.358642578125	1525.193359375	-494.7002258300781	1989.5498046875	1531.103393554688	-174.6138458251953	2008.563842773438	1053.02978515625	-462.4339599609375	1999.408569335938	1090.021606445312	-165.7377471923828	2050.91455078125	1013.405517578125	-434.7617797851562	1520.051513671875	226.1647033691406	-341.0628356933594	2038.718139648438	1043.087646484375	-172.016845703125	1923.778930664062	944.1683349609376	-473.3343505859375	1942.39794921875	951.9905395507812	-133.4731292724609	1886.430419921875	1091.080078125	-314.3861083984375	2002.034057617188	767.3504028320312	-444.6001892089844	1626.807373046875	344.8280944824219	-375.379150390625	1924.341674804688	783.8043212890625	-473.0081787109375	1969.863647460938	669.9290771484375	-422.2199096679688	2219.982177734375	131.6547241210938	-142.0421600341797	1687.774047851562	418.1937561035156	-417.2715759277344	1890.539184570312	692.4171752929688	-446.1234436035156	2112.95556640625	880.7649536132812	-161.2604064941406	1698.244995117188	54.51824569702148	-341.380126953125	2049.1474609375	842.0533447265625	-130.5252838134766	2165.02880859375	793.3441162109375	-162.5635986328125	2096.095458984375	754.2789916992188	-143.1589508056641	1867.442993164062	542.9315795898438	-404.70947265625	2185.123046875	610.9549560546875	-173.4753875732422	1751.654296875	363.565673828125	-406.6172790527344	1682.235229492188	290.1019592285156	-400.4077758789062	2156.586181640625	418.7082214355469	-151.3218078613281	1630.118408203125	81.48978424072266	-402.4613342285156	2077.411376953125	432.7889099121094	-167.5061492919922	1510.860595703125	200.5136413574219	-309.833740234375	2142.51513671875	318.9674682617188	-164.9825286865234	2066.345947265625	334.5345764160156	-188.5635986328125	1586.044677734375	218.8329162597656	-391.19970703125	2090.372802734375	193.7842559814453	-167.1044006347656	2279.350830078125	142.4157257080078	-208.6357421875	2025.6435546875	149.2518463134766	-217.0669555664062	2040.179565429688	123.1849670410156	-243.7652740478516	2028.2626953125	126.3480453491211	-193.2560577392578	1502.31884765625	198.43408203125	-360.252685546875
286	1.425	2073.175048828125	1529.3232421875	-493.0599060058594	2004.212524414062	1534.056030273438	-174.0522155761719	2026.069702148438	1055.902221679688	-461.9318542480469	2016.294677734375	1092.71875	-165.5785369873047	2067.87744140625	1015.831298828125	-434.0260314941406	1535.013305664062	237.1013793945312	-342.0662231445312	2055.2470703125	1045.441772460938	-171.8536376953125	1940.265502929688	947.5377807617188	-473.2454833984375	1959.349609375	954.8474731445312	-133.332275390625	1903.914672851562	1093.799072265625	-314.3763427734375	2016.439819335938	770.0936279296875	-444.8083190917969	1637.471923828125	350.3412170410156	-376.1904296875	1938.896118164062	788.0758056640625	-473.4923400878906	1982.907104492188	672.8826293945312	-423.2796020507812	2253.294921875	132.9190216064453	-142.5490417480469	1698.311645507812	423.4888916015625	-417.846435546875	1903.872680664062	696.7294311523438	-446.4837951660156	2129.2958984375	882.5414428710938	-160.1688079833984	1702.472900390625	54.31737518310547	-342.4861755371094	2064.740234375	843.6034545898438	-131.2733154296875	2180.272216796875	794.1702880859375	-162.1866149902344	2110.94384765625	755.9256591796875	-143.6817779541016	1879.031005859375	546.9204711914062	-405.9639892578125	2198.804443359375	611.8275756835938	-173.2665405273438	1762.583251953125	368.730712890625	-407.9122924804688	1692.559448242188	295.7778015136719	-401.817138671875	2177.59375	418.4930419921875	-151.0490417480469	1635.50341796875	85.11541748046875	-401.890625	2097.685546875	429.0778198242188	-167.2861328125	1522.461181640625	211.8924407958984	-310.9334106445312	2167.73193359375	318.685546875	-164.7131652832031	2091.106689453125	330.3349609375	-189.5675354003906	1596.518798828125	224.5154418945312	-391.6858520507812	2120.998291015625	189.8571166992188	-167.1190338134766	2311.714599609375	146.6171112060547	-209.8822631835938	2058.1044921875	143.2800445556641	-216.8694000244141	2073.603515625	117.929313659668	-243.7449493408203	2061.4609375	120.1818313598633	-192.9909362792969	1513.769409179688	209.7254333496094	-361.3033447265625
